<?xml version="1.0" encoding="UTF-8"?>
<!DOCTYPE svg PUBLIC "-//W3C//DTD SVG 1.1//EN" "http://www.w3.org/Graphics/SVG/1.1/DTD/svg11.dtd">
<svg xmlns="http://www.w3.org/2000/svg" version="1.1" width="2048px" height="2048px" style="shape-rendering:geometricPrecision; text-rendering:geometricPrecision; image-rendering:optimizeQuality; fill-rule:evenodd; clip-rule:evenodd" xmlns:xlink="http://www.w3.org/1999/xlink">
<g><path style="opacity:0.999" fill="#1fd591" d="M 871.5,-0.5 C 873.167,-0.5 874.833,-0.5 876.5,-0.5C 885.325,6.07935 894.325,12.4127 903.5,18.5C 903.389,19.1174 903.056,19.6174 902.5,20C 981.052,125.552 1059.22,231.385 1137,337.5C 1137.82,338.823 1138.98,339.489 1140.5,339.5C 1121.5,356.833 1102.5,374.167 1083.5,391.5C 1071.83,391.5 1060.17,391.5 1048.5,391.5C 961.167,272.833 873.833,154.167 786.5,35.5C 815.012,23.7388 843.346,11.7388 871.5,-0.5 Z"/></g>
<g><path style="opacity:0.983" fill="#aae46c" d="M 1522.5,-0.5 C 1523.17,-0.5 1523.83,-0.5 1524.5,-0.5C 1529.32,33.5391 1534.32,67.5391 1539.5,101.5C 1538.88,101.611 1538.38,101.944 1538,102.5C 1514.34,84.9343 1490.84,67.2677 1467.5,49.5C 1485.83,32.8333 1504.17,16.1667 1522.5,-0.5 Z"/></g>
<g><path style="opacity:0.999" fill="#1ed494" d="M 903.5,18.5 C 925.184,32.0057 946.517,46.0057 967.5,60.5C 1030.74,148.392 1095.07,235.392 1160.5,321.5C 1154.17,327.5 1147.83,333.5 1141.5,339.5C 1141.17,339.5 1140.83,339.5 1140.5,339.5C 1138.98,339.489 1137.82,338.823 1137,337.5C 1059.22,231.385 981.052,125.552 902.5,20C 903.056,19.6174 903.389,19.1174 903.5,18.5 Z"/></g>
<g><path style="opacity:1" fill="#1ed58f" d="M 786.5,35.5 C 873.833,154.167 961.167,272.833 1048.5,391.5C 1041.83,391.5 1035.17,391.5 1028.5,391.5C 942.447,275.448 856.781,159.115 771.5,42.5C 776.315,39.9278 781.315,37.5944 786.5,35.5 Z"/></g>
<g><path style="opacity:0.999" fill="#20d68b" d="M 771.5,42.5 C 856.781,159.115 942.447,275.448 1028.5,391.5C 907.5,391.5 786.5,391.5 665.5,391.5C 608.887,313.261 551.554,235.595 493.5,158.5C 585.859,119.264 678.526,80.5976 771.5,42.5 Z"/></g>
<g><path style="opacity:0.995" fill="#a5e36d" d="M 1467.5,49.5 C 1490.84,67.2677 1514.34,84.9343 1538,102.5C 1538.38,101.944 1538.88,101.611 1539.5,101.5C 1546.31,149.531 1553.31,197.531 1560.5,245.5C 1559.45,245.649 1558.45,245.483 1557.5,245C 1501.49,202.67 1445.16,160.837 1388.5,119.5C 1414.23,95.43 1440.57,72.0967 1467.5,49.5 Z"/></g>
<g><path style="opacity:0.996" fill="#1dd397" d="M 967.5,60.5 C 1061.1,121.44 1154.44,182.774 1247.5,244.5C 1238.69,253.066 1229.69,261.399 1220.5,269.5C 1200.8,287.207 1180.8,304.54 1160.5,321.5C 1095.07,235.392 1030.74,148.392 967.5,60.5 Z"/></g>
<g><path style="opacity:0.997" fill="#9fe36e" d="M 1388.5,119.5 C 1445.16,160.837 1501.49,202.67 1557.5,245C 1558.45,245.483 1559.45,245.649 1560.5,245.5C 1567.5,293.5 1574.5,341.5 1581.5,389.5C 1573.38,384.267 1565.38,378.767 1557.5,373C 1475.1,311.479 1392.77,249.979 1310.5,188.5C 1336.08,165.04 1362.08,142.04 1388.5,119.5 Z"/></g>
<g><path style="opacity:0.999" fill="#21d788" d="M 493.5,158.5 C 551.554,235.595 608.887,313.261 665.5,391.5C 574.167,391.5 482.833,391.5 391.5,391.5C 391.5,612.167 391.5,832.833 391.5,1053.5C 376.449,1075.22 361.782,1097.22 347.5,1119.5C 336.684,1134.45 326.351,1149.78 316.5,1165.5C 306.599,1179.62 296.932,1193.96 287.5,1208.5C 279.448,1219.89 271.781,1231.56 264.5,1243.5C 255.018,1256.45 246.018,1269.78 237.5,1283.5C 224.808,1301.54 212.475,1319.87 200.5,1338.5C 193.006,1348.82 186.006,1359.48 179.5,1370.5C 178.167,1371.83 176.833,1373.17 175.5,1374.5C 173.983,1374.49 172.816,1373.82 172,1372.5C 128.491,1313.47 84.9908,1254.47 41.5,1195.5C 68.822,901.125 96.6553,606.792 125,312.5C 247.637,260.677 370.471,209.344 493.5,158.5 Z"/></g>
<g><path style="opacity:0.999" fill="#9ae26f" d="M 1310.5,188.5 C 1392.77,249.979 1475.1,311.479 1557.5,373C 1565.38,378.767 1573.38,384.267 1581.5,389.5C 1581.5,390.167 1581.5,390.833 1581.5,391.5C 1537.5,391.5 1493.5,391.5 1449.5,391.5C 1383.23,341.358 1316.56,291.691 1249.5,242.5C 1269.81,224.529 1290.14,206.529 1310.5,188.5 Z"/></g>
<g><path style="opacity:1" fill="#96e171" d="M 1249.5,242.5 C 1316.56,291.691 1383.23,341.358 1449.5,391.5C 1426.83,391.5 1404.17,391.5 1381.5,391.5C 1328.92,351.534 1275.92,312.034 1222.5,273C 1221.18,272.184 1220.51,271.017 1220.5,269.5C 1229.69,261.399 1238.69,253.066 1247.5,244.5C 1247.83,243.5 1248.5,242.833 1249.5,242.5 Z"/></g>
<g><path style="opacity:1" fill="#92e171" d="M 1220.5,269.5 C 1220.51,271.017 1221.18,272.184 1222.5,273C 1275.92,312.034 1328.92,351.534 1381.5,391.5C 1324.17,391.5 1266.83,391.5 1209.5,391.5C 1186.55,374.55 1163.88,357.217 1141.5,339.5C 1147.83,333.5 1154.17,327.5 1160.5,321.5C 1180.8,304.54 1200.8,287.207 1220.5,269.5 Z"/></g>
<g><path style="opacity:1" fill="#8de072" d="M 1140.5,339.5 C 1140.83,339.5 1141.17,339.5 1141.5,339.5C 1163.88,357.217 1186.55,374.55 1209.5,391.5C 1167.5,391.5 1125.5,391.5 1083.5,391.5C 1102.5,374.167 1121.5,356.833 1140.5,339.5 Z"/></g>
<g><path style="opacity:1" fill="#000000" d="M 1581.5,391.5 C 1606.17,391.5 1630.83,391.5 1655.5,391.5C 1655.5,429.167 1655.5,466.833 1655.5,504.5C 1655.5,642.5 1655.5,780.5 1655.5,918.5C 1654.5,1163.67 1654.17,1409 1654.5,1654.5C 1233.83,1654.5 813.167,1654.5 392.5,1654.5C 392.5,1233.83 392.5,813.167 392.5,392.5C 789,392.833 1185.33,392.5 1581.5,391.5 Z"/></g>
<g><path style="opacity:0.999" fill="#0dc8d9" d="M 1655.5,504.5 C 1662.19,510.196 1668.86,515.863 1675.5,521.5C 1674.84,651.171 1675.5,780.504 1677.5,909.5C 1670.24,912.481 1662.9,915.481 1655.5,918.5C 1655.5,780.5 1655.5,642.5 1655.5,504.5 Z"/></g>
<g><path style="opacity:0.999" fill="#0dc7db" d="M 1675.5,521.5 C 1681.15,525.823 1686.49,530.49 1691.5,535.5C 1691.17,658.334 1691.5,781.001 1692.5,903.5C 1687.74,905.871 1682.74,907.871 1677.5,909.5C 1675.5,780.504 1674.84,651.171 1675.5,521.5 Z"/></g>
<g><path style="opacity:0.999" fill="#0cc6dd" d="M 1691.5,535.5 C 1710.42,550.087 1728.76,565.42 1746.5,581.5C 1746.17,682.001 1746.5,782.335 1747.5,882.5C 1729.46,890.071 1711.13,897.071 1692.5,903.5C 1691.5,781.001 1691.17,658.334 1691.5,535.5 Z"/></g>
<g><path style="opacity:1" fill="#fefefe" d="M 1216.5,549.5 C 1263.38,547.023 1309.05,553.189 1353.5,568C 1389.6,582.289 1420.93,603.456 1447.5,631.5C 1423.63,659.914 1399.3,687.914 1374.5,715.5C 1360.88,703.695 1346.55,692.861 1331.5,683C 1285.75,656.652 1237.75,651.319 1187.5,667C 1139.71,687.796 1108.54,723.296 1094,773.5C 1079.98,831.054 1090.64,883.387 1126,930.5C 1163.42,971.865 1209.92,988.699 1265.5,981C 1294.98,976.584 1321.65,965.584 1345.5,948C 1356.31,939.355 1366.98,930.522 1377.5,921.5C 1401.99,945.486 1426.32,969.653 1450.5,994C 1404.97,1047.77 1346.97,1078.44 1276.5,1086C 1192.14,1097.34 1117.81,1075.67 1053.5,1021C 992.885,961.873 964.385,889.706 968,804.5C 973.443,726.115 1005.61,661.282 1064.5,610C 1109.02,574.578 1159.69,554.412 1216.5,549.5 Z"/></g>
<g><path style="opacity:1" fill="#fefefe" d="M 723.5,926.5 C 689.833,926.5 656.167,926.5 622.5,926.5C 622.5,978.167 622.5,1029.83 622.5,1081.5C 584.67,1082.5 546.67,1082.83 508.5,1082.5C 508.5,907.833 508.5,733.167 508.5,558.5C 585.501,558.333 662.501,558.5 739.5,559C 780.544,561.337 818.211,573.671 852.5,596C 898.748,632.506 921.748,680.506 921.5,740C 919.016,831.984 873.683,890.984 785.5,917C 765.175,922.443 744.509,925.61 723.5,926.5 Z"/></g>
<g><path style="opacity:0.999" fill="#0bc5e3" d="M 1746.5,581.5 C 1774.09,603.421 1801.09,626.088 1827.5,649.5C 1827.5,764.833 1827.5,880.167 1827.5,995.5C 1816.17,952.175 1804.5,908.841 1792.5,865.5C 1777.59,871.458 1762.59,877.124 1747.5,882.5C 1746.5,782.335 1746.17,682.001 1746.5,581.5 Z"/></g>
<g><path style="opacity:0.998" fill="#09c4ea" d="M 1827.5,649.5 C 1851.13,668.463 1874.46,687.796 1897.5,707.5C 1897.17,837.334 1897.5,967.001 1898.5,1096.5C 1888.89,1116.05 1879.56,1135.71 1870.5,1155.5C 1868.38,1150.38 1866.54,1145.05 1865,1139.5C 1852.2,1091.57 1839.7,1043.57 1827.5,995.5C 1827.5,880.167 1827.5,764.833 1827.5,649.5 Z"/></g>
<g><path style="opacity:1" fill="#2f2f2f" d="M 719.5,661.5 C 687.5,661.5 655.5,661.5 623.5,661.5C 623.5,714.833 623.5,768.167 623.5,821.5C 622.501,768.003 622.168,714.336 622.5,660.5C 655.004,660.168 687.338,660.502 719.5,661.5 Z"/></g>
<g><path style="opacity:1" fill="#000000" d="M 719.5,661.5 C 743.051,661.405 764.051,668.572 782.5,683C 797.578,698.559 804.578,717.226 803.5,739C 802.933,782.798 781.266,809.464 738.5,819C 733.877,819.958 729.21,820.625 724.5,821C 690.835,821.5 657.168,821.667 623.5,821.5C 623.5,768.167 623.5,714.833 623.5,661.5C 655.5,661.5 687.5,661.5 719.5,661.5 Z"/></g>
<g><path style="opacity:0.995" fill="#07c3f0" d="M 1897.5,707.5 C 1943.11,745.101 1988.44,783.101 2033.5,821.5C 1988.73,913.381 1943.73,1005.05 1898.5,1096.5C 1897.5,967.001 1897.17,837.334 1897.5,707.5 Z"/></g>
<g><path style="opacity:0.999" fill="#fbf74a" d="M 1827.5,995.5 C 1839.7,1043.57 1852.2,1091.57 1865,1139.5C 1866.54,1145.05 1868.38,1150.38 1870.5,1155.5C 1928.74,1379.47 1987.74,1603.14 2047.5,1826.5C 2047.5,1828.17 2047.5,1829.83 2047.5,1831.5C 1851.5,1898.5 1655.5,1965.5 1459.5,2032.5C 1460.79,1906.83 1462.12,1781.17 1463.5,1655.5C 1527.5,1655.5 1591.5,1655.5 1655.5,1655.5C 1655.5,1409.83 1655.5,1164.17 1655.5,918.5C 1662.9,915.481 1670.24,912.481 1677.5,909.5C 1682.74,907.871 1687.74,905.871 1692.5,903.5C 1711.13,897.071 1729.46,890.071 1747.5,882.5C 1762.59,877.124 1777.59,871.458 1792.5,865.5C 1804.5,908.841 1816.17,952.175 1827.5,995.5 Z"/></g>
<g><path style="opacity:1" fill="#a7e36c" d="M 391.5,1053.5 C 391.5,1080.17 391.5,1106.83 391.5,1133.5C 376.911,1128.64 362.244,1123.97 347.5,1119.5C 361.782,1097.22 376.449,1075.22 391.5,1053.5 Z"/></g>
<g><path style="opacity:1" fill="#9ae26f" d="M 347.5,1119.5 C 362.244,1123.97 376.911,1128.64 391.5,1133.5C 391.5,1152.5 391.5,1171.5 391.5,1190.5C 366.22,1182.74 341.22,1174.41 316.5,1165.5C 326.351,1149.78 336.684,1134.45 347.5,1119.5 Z"/></g>
<g><path style="opacity:1" fill="#8ee172" d="M 316.5,1165.5 C 341.22,1174.41 366.22,1182.74 391.5,1190.5C 391.5,1208.5 391.5,1226.5 391.5,1244.5C 356.971,1233.1 322.304,1222.1 287.5,1211.5C 287.5,1210.5 287.5,1209.5 287.5,1208.5C 296.932,1193.96 306.599,1179.62 316.5,1165.5 Z"/></g>
<g><path style="opacity:0.998" fill="#28d886" d="M 41.5,1195.5 C 84.9908,1254.47 128.491,1313.47 172,1372.5C 172.816,1373.82 173.983,1374.49 175.5,1374.5C 170.5,1382.5 165.5,1390.5 160.5,1398.5C 157.925,1401.32 155.592,1404.32 153.5,1407.5C 151.983,1407.49 150.816,1406.82 150,1405.5C 112.523,1353.5 74.356,1302.16 35.5,1251.5C 37.249,1232.67 39.249,1214 41.5,1195.5 Z"/></g>
<g><path style="opacity:1" fill="#83e074" d="M 287.5,1208.5 C 287.5,1209.5 287.5,1210.5 287.5,1211.5C 322.304,1222.1 356.971,1233.1 391.5,1244.5C 391.5,1257.83 391.5,1271.17 391.5,1284.5C 348.885,1271.41 306.552,1257.74 264.5,1243.5C 271.781,1231.56 279.448,1219.89 287.5,1208.5 Z"/></g>
<g><path style="opacity:0.998" fill="#2fd984" d="M 35.5,1251.5 C 74.356,1302.16 112.523,1353.5 150,1405.5C 150.816,1406.82 151.983,1407.49 153.5,1407.5C 148.833,1414.83 144.167,1422.17 139.5,1429.5C 132.833,1439.17 126.167,1448.83 119.5,1458.5C 117.983,1458.49 116.816,1457.82 116,1456.5C 86.6367,1416.32 57.1367,1376.32 27.5,1336.5C 30.2865,1308.18 32.9531,1279.85 35.5,1251.5 Z"/></g>
<g><path style="opacity:1" fill="#7adf76" d="M 264.5,1243.5 C 306.552,1257.74 348.885,1271.41 391.5,1284.5C 391.5,1300.83 391.5,1317.17 391.5,1333.5C 339.976,1317.13 288.643,1300.46 237.5,1283.5C 246.018,1269.78 255.018,1256.45 264.5,1243.5 Z"/></g>
<g><path style="opacity:1" fill="#6fde79" d="M 237.5,1283.5 C 288.643,1300.46 339.976,1317.13 391.5,1333.5C 391.5,1355.83 391.5,1378.17 391.5,1400.5C 327.454,1380.58 263.788,1359.91 200.5,1338.5C 212.475,1319.87 224.808,1301.54 237.5,1283.5 Z"/></g>
<g><path style="opacity:1" fill="#66dd7a" d="M 200.5,1338.5 C 263.788,1359.91 327.454,1380.58 391.5,1400.5C 391.5,1413.5 391.5,1426.5 391.5,1439.5C 321.376,1417.09 251.209,1394.76 181,1372.5C 179.97,1372.16 179.47,1371.5 179.5,1370.5C 186.006,1359.48 193.006,1348.82 200.5,1338.5 Z"/></g>
<g><path style="opacity:1" fill="#60dc7b" d="M 179.5,1370.5 C 179.47,1371.5 179.97,1372.16 181,1372.5C 251.209,1394.76 321.376,1417.09 391.5,1439.5C 391.5,1450.5 391.5,1461.5 391.5,1472.5C 314.065,1448.9 237.065,1424.23 160.5,1398.5C 165.5,1390.5 170.5,1382.5 175.5,1374.5C 176.833,1373.17 178.167,1371.83 179.5,1370.5 Z"/></g>
<g><path style="opacity:0.995" fill="#3edb80" d="M 27.5,1336.5 C 57.1367,1376.32 86.6367,1416.32 116,1456.5C 116.816,1457.82 117.983,1458.49 119.5,1458.5C 117.833,1461.17 116.167,1463.83 114.5,1466.5C 102.587,1484.26 90.42,1501.93 78,1519.5C 58.6667,1493.5 39.3333,1467.5 20,1441.5C 19.3292,1440.75 18.4959,1440.41 17.5,1440.5C 21.0128,1405.86 24.3462,1371.19 27.5,1336.5 Z"/></g>
<g><path style="opacity:1" fill="#5adb7c" d="M 160.5,1398.5 C 237.065,1424.23 314.065,1448.9 391.5,1472.5C 391.5,1485.17 391.5,1497.83 391.5,1510.5C 307.705,1484.51 224.038,1458.01 140.5,1431C 139.944,1430.62 139.611,1430.12 139.5,1429.5C 144.167,1422.17 148.833,1414.83 153.5,1407.5C 155.592,1404.32 157.925,1401.32 160.5,1398.5 Z"/></g>
<g><path style="opacity:1" fill="#54db7e" d="M 139.5,1429.5 C 139.611,1430.12 139.944,1430.62 140.5,1431C 224.038,1458.01 307.705,1484.51 391.5,1510.5C 391.5,1525.5 391.5,1540.5 391.5,1555.5C 299.025,1526.01 206.692,1496.34 114.5,1466.5C 116.167,1463.83 117.833,1461.17 119.5,1458.5C 126.167,1448.83 132.833,1439.17 139.5,1429.5 Z"/></g>
<g><path style="opacity:1" fill="#4cdb7f" d="M 17.5,1440.5 C 18.4959,1440.41 19.3292,1440.75 20,1441.5C 39.3333,1467.5 58.6667,1493.5 78,1519.5C 90.42,1501.93 102.587,1484.26 114.5,1466.5C 206.692,1496.34 299.025,1526.01 391.5,1555.5C 391.5,1580.5 391.5,1605.5 391.5,1630.5C 285.568,1597.22 179.735,1563.56 74,1529.5C 72.7387,1529.76 71.7387,1530.43 71,1531.5C 67.5791,1536.07 64.4124,1540.74 61.5,1545.5C 47.2183,1525.38 32.7183,1505.38 18,1485.5C 16.6927,1483.81 15.1927,1482.47 13.5,1481.5C 15.1921,1467.89 16.5255,1454.22 17.5,1440.5 Z"/></g>
<g><path style="opacity:0.99" fill="#53de7a" d="M 13.5,1481.5 C 15.1927,1482.47 16.6927,1483.81 18,1485.5C 32.7183,1505.38 47.2183,1525.38 61.5,1545.5C 51.326,1559.85 41.6593,1574.52 32.5,1589.5C 23.8083,1601.54 15.4749,1613.87 7.5,1626.5C 4.83333,1630.17 2.16667,1633.83 -0.5,1637.5C -0.5,1634.17 -0.5,1630.83 -0.5,1627.5C 4.68005,1579.03 9.34671,1530.36 13.5,1481.5 Z"/></g>
<g><path style="opacity:1" fill="#42da81" d="M 391.5,1630.5 C 391.5,1638.83 391.5,1647.17 391.5,1655.5C 468.5,1655.5 545.5,1655.5 622.5,1655.5C 614.993,1694.04 606.993,1732.37 598.5,1770.5C 410.186,1709.4 221.519,1649.06 32.5,1589.5C 41.6593,1574.52 51.326,1559.85 61.5,1545.5C 64.4124,1540.74 67.5791,1536.07 71,1531.5C 71.7387,1530.43 72.7387,1529.76 74,1529.5C 179.735,1563.56 285.568,1597.22 391.5,1630.5 Z"/></g>
<g><path style="opacity:1" fill="#3cd982" d="M 32.5,1589.5 C 221.519,1649.06 410.186,1709.4 598.5,1770.5C 596.217,1783.91 593.55,1797.25 590.5,1810.5C 603.718,1814.47 617.051,1818.14 630.5,1821.5C 651.372,1827.9 672.372,1833.9 693.5,1839.5C 718.48,1846.63 743.48,1853.63 768.5,1860.5C 793.813,1867.09 818.813,1874.42 843.5,1882.5C 841.196,1885.14 838.862,1887.81 836.5,1890.5C 560.167,1802.5 283.833,1714.5 7.5,1626.5C 15.4749,1613.87 23.8083,1601.54 32.5,1589.5 Z"/></g>
<g><path style="opacity:0.998" fill="#36d884" d="M 7.5,1626.5 C 283.833,1714.5 560.167,1802.5 836.5,1890.5C 815.845,1915.15 794.845,1939.49 773.5,1963.5C 616.784,1913.71 460.117,1863.71 303.5,1813.5C 302.817,1813.86 302.15,1814.2 301.5,1814.5C 200.833,1755.83 100.167,1697.17 -0.5,1638.5C -0.5,1638.17 -0.5,1637.83 -0.5,1637.5C 2.16667,1633.83 4.83333,1630.17 7.5,1626.5 Z"/></g>
<g><path style="opacity:1" fill="#070a04" d="M 665.5,391.5 C 786.5,391.5 907.5,391.5 1028.5,391.5C 1035.17,391.5 1041.83,391.5 1048.5,391.5C 1060.17,391.5 1071.83,391.5 1083.5,391.5C 1125.5,391.5 1167.5,391.5 1209.5,391.5C 1266.83,391.5 1324.17,391.5 1381.5,391.5C 1404.17,391.5 1426.83,391.5 1449.5,391.5C 1493.5,391.5 1537.5,391.5 1581.5,391.5C 1185.33,392.5 789,392.833 392.5,392.5C 392.5,813.167 392.5,1233.83 392.5,1654.5C 813.167,1654.5 1233.83,1654.5 1654.5,1654.5C 1654.17,1409 1654.5,1163.67 1655.5,918.5C 1655.5,1164.17 1655.5,1409.83 1655.5,1655.5C 1591.5,1655.5 1527.5,1655.5 1463.5,1655.5C 1429.17,1655.5 1394.83,1655.5 1360.5,1655.5C 1326.5,1655.5 1292.5,1655.5 1258.5,1655.5C 1245.17,1655.5 1231.83,1655.5 1218.5,1655.5C 1204.17,1655.5 1189.83,1655.5 1175.5,1655.5C 1146.17,1655.5 1116.83,1655.5 1087.5,1655.5C 1075.17,1655.5 1062.83,1655.5 1050.5,1655.5C 1037.5,1655.5 1024.5,1655.5 1011.5,1655.5C 985.833,1655.5 960.167,1655.5 934.5,1655.5C 909.167,1655.5 883.833,1655.5 858.5,1655.5C 829.167,1655.5 799.833,1655.5 770.5,1655.5C 745.167,1655.5 719.833,1655.5 694.5,1655.5C 673.833,1655.5 653.167,1655.5 632.5,1655.5C 629.167,1655.5 625.833,1655.5 622.5,1655.5C 545.5,1655.5 468.5,1655.5 391.5,1655.5C 391.5,1647.17 391.5,1638.83 391.5,1630.5C 391.5,1605.5 391.5,1580.5 391.5,1555.5C 391.5,1540.5 391.5,1525.5 391.5,1510.5C 391.5,1497.83 391.5,1485.17 391.5,1472.5C 391.5,1461.5 391.5,1450.5 391.5,1439.5C 391.5,1426.5 391.5,1413.5 391.5,1400.5C 391.5,1378.17 391.5,1355.83 391.5,1333.5C 391.5,1317.17 391.5,1300.83 391.5,1284.5C 391.5,1271.17 391.5,1257.83 391.5,1244.5C 391.5,1226.5 391.5,1208.5 391.5,1190.5C 391.5,1171.5 391.5,1152.5 391.5,1133.5C 391.5,1106.83 391.5,1080.17 391.5,1053.5C 391.5,832.833 391.5,612.167 391.5,391.5C 482.833,391.5 574.167,391.5 665.5,391.5 Z"/></g>
<g><path style="opacity:1" fill="#fefefe" d="M 511.5,1418.5 C 669.5,1418.5 827.5,1418.5 985.5,1418.5C 985.5,1444.83 985.5,1471.17 985.5,1497.5C 827.5,1497.5 669.5,1497.5 511.5,1497.5C 511.5,1471.17 511.5,1444.83 511.5,1418.5 Z"/></g>
<g><path style="opacity:1" fill="#3f3f3f" d="M 723.5,926.5 C 690.338,927.498 657.004,927.832 623.5,927.5C 623.832,979.003 623.499,1030.34 622.5,1081.5C 622.5,1029.83 622.5,978.167 622.5,926.5C 656.167,926.5 689.833,926.5 723.5,926.5 Z"/></g>
<g><path style="opacity:1" fill="#bae667" d="M 622.5,1655.5 C 625.833,1655.5 629.167,1655.5 632.5,1655.5C 632.051,1710.84 631.385,1766.17 630.5,1821.5C 617.051,1818.14 603.718,1814.47 590.5,1810.5C 593.55,1797.25 596.217,1783.91 598.5,1770.5C 606.993,1732.37 614.993,1694.04 622.5,1655.5 Z"/></g>
<g><path style="opacity:1" fill="#bee865" d="M 632.5,1655.5 C 653.167,1655.5 673.833,1655.5 694.5,1655.5C 694.048,1716.83 693.715,1778.17 693.5,1839.5C 672.372,1833.9 651.372,1827.9 630.5,1821.5C 631.385,1766.17 632.051,1710.84 632.5,1655.5 Z"/></g>
<g><path style="opacity:1" fill="#c4e962" d="M 694.5,1655.5 C 719.833,1655.5 745.167,1655.5 770.5,1655.5C 769.46,1723.83 768.793,1792.16 768.5,1860.5C 743.48,1853.63 718.48,1846.63 693.5,1839.5C 693.715,1778.17 694.048,1716.83 694.5,1655.5 Z"/></g>
<g><path style="opacity:1" fill="#cbeb5f" d="M 770.5,1655.5 C 799.833,1655.5 829.167,1655.5 858.5,1655.5C 858.311,1732.17 857.645,1808.84 856.5,1885.5C 852.12,1884.71 847.787,1883.71 843.5,1882.5C 818.813,1874.42 793.813,1867.09 768.5,1860.5C 768.793,1792.16 769.46,1723.83 770.5,1655.5 Z"/></g>
<g><path style="opacity:0.999" fill="#d1ed5c" d="M 858.5,1655.5 C 883.833,1655.5 909.167,1655.5 934.5,1655.5C 934.394,1733.17 933.727,1810.84 932.5,1888.5C 932.519,1894.91 932.852,1901.24 933.5,1907.5C 907.6,1900.61 881.934,1893.28 856.5,1885.5C 857.645,1808.84 858.311,1732.17 858.5,1655.5 Z"/></g>
<g><path style="opacity:0.999" fill="#d7ee5a" d="M 934.5,1655.5 C 960.167,1655.5 985.833,1655.5 1011.5,1655.5C 1010.24,1746.76 1009.24,1837.76 1008.5,1928.5C 983.427,1921.7 958.427,1914.7 933.5,1907.5C 932.852,1901.24 932.519,1894.91 932.5,1888.5C 933.727,1810.84 934.394,1733.17 934.5,1655.5 Z"/></g>
<g><path style="opacity:0.999" fill="#dcef58" d="M 1011.5,1655.5 C 1024.5,1655.5 1037.5,1655.5 1050.5,1655.5C 1049.74,1750.17 1049.07,1844.83 1048.5,1939.5C 1034.98,1936.45 1021.65,1932.79 1008.5,1928.5C 1009.24,1837.76 1010.24,1746.76 1011.5,1655.5 Z"/></g>
<g><path style="opacity:0.999" fill="#dff056" d="M 1050.5,1655.5 C 1062.83,1655.5 1075.17,1655.5 1087.5,1655.5C 1086.54,1753.39 1085.2,1851.39 1083.5,1949.5C 1071.51,1946.92 1059.84,1943.59 1048.5,1939.5C 1049.07,1844.83 1049.74,1750.17 1050.5,1655.5 Z"/></g>
<g><path style="opacity:0.999" fill="#e4f154" d="M 1087.5,1655.5 C 1116.83,1655.5 1146.17,1655.5 1175.5,1655.5C 1175,1761.84 1174,1868.18 1172.5,1974.5C 1142.57,1966.74 1112.9,1958.41 1083.5,1949.5C 1085.2,1851.39 1086.54,1753.39 1087.5,1655.5 Z"/></g>
<g><path style="opacity:0.999" fill="#e9f352" d="M 1175.5,1655.5 C 1189.83,1655.5 1204.17,1655.5 1218.5,1655.5C 1217.99,1766.17 1216.99,1876.84 1215.5,1987.5C 1201.04,1983.31 1186.7,1978.97 1172.5,1974.5C 1174,1868.18 1175,1761.84 1175.5,1655.5 Z"/></g>
<g><path style="opacity:0.999" fill="#ecf450" d="M 1218.5,1655.5 C 1231.83,1655.5 1245.17,1655.5 1258.5,1655.5C 1257.74,1769.67 1256.41,1883.67 1254.5,1997.5C 1241.46,1994.32 1228.46,1990.99 1215.5,1987.5C 1216.99,1876.84 1217.99,1766.17 1218.5,1655.5 Z"/></g>
<g><path style="opacity:0.999" fill="#f0f54f" d="M 1258.5,1655.5 C 1292.5,1655.5 1326.5,1655.5 1360.5,1655.5C 1359.66,1779.5 1358.66,1903.5 1357.5,2027.5C 1323.04,2017.64 1288.71,2007.64 1254.5,1997.5C 1256.41,1883.67 1257.74,1769.67 1258.5,1655.5 Z"/></g>
<g><path style="opacity:0.999" fill="#f6f64c" d="M 1360.5,1655.5 C 1394.83,1655.5 1429.17,1655.5 1463.5,1655.5C 1462.12,1781.17 1460.79,1906.83 1459.5,2032.5C 1446.56,2036.53 1433.73,2040.87 1421,2045.5C 1399.95,2039.11 1378.79,2033.11 1357.5,2027.5C 1358.66,1903.5 1359.66,1779.5 1360.5,1655.5 Z"/></g>
<g><path style="opacity:0.995" fill="#2ed786" d="M 773.5,1963.5 C 749.833,1991.5 726.167,2019.5 702.5,2047.5C 701.5,2047.5 700.5,2047.5 699.5,2047.5C 566.833,1969.83 434.167,1892.17 301.5,1814.5C 302.15,1814.2 302.817,1813.86 303.5,1813.5C 460.117,1863.71 616.784,1913.71 773.5,1963.5 Z"/></g>
</svg>
