<?xml version="1.0" encoding="UTF-8"?>
<!DOCTYPE svg PUBLIC "-//W3C//DTD SVG 1.1//EN" "http://www.w3.org/Graphics/SVG/1.1/DTD/svg11.dtd">
<svg xmlns="http://www.w3.org/2000/svg" version="1.1" width="225px" height="225px" style="shape-rendering:geometricPrecision; text-rendering:geometricPrecision; image-rendering:optimizeQuality; fill-rule:evenodd; clip-rule:evenodd" xmlns:xlink="http://www.w3.org/1999/xlink">
<g><path style="opacity:1" fill="#fdfdfe" d="M -0.5,-0.5 C 33.8333,-0.5 68.1667,-0.5 102.5,-0.5C 75.5118,2.26817 52.5118,13.2682 33.5,32.5C 13.6021,51.63 2.26878,74.9634 -0.5,102.5C -0.5,68.1667 -0.5,33.8333 -0.5,-0.5 Z"/></g>
<g><path style="opacity:1" fill="#014e8c" d="M 102.5,-0.5 C 107.833,-0.5 113.167,-0.5 118.5,-0.5C 165.094,4.5579 197.927,28.5579 217,71.5C 220.254,80.7621 222.754,90.0954 224.5,99.5C 224.5,105.833 224.5,112.167 224.5,118.5C 222.774,139.044 216.274,158.044 205,175.5C 201.375,181.292 196.875,186.292 191.5,190.5C 181.757,179.253 171.424,168.42 160.5,158C 149.992,157.83 139.659,157.33 129.5,156.5C 140.172,156.667 150.839,156.5 161.5,156C 181.744,150.01 187.911,137.177 180,117.5C 175.931,112.715 170.764,109.881 164.5,109C 179.062,101.983 182.895,91.1495 176,76.5C 172.159,71.9966 167.326,69.1633 161.5,68C 150.839,67.5002 140.172,67.3335 129.5,67.5C 128.668,86.6623 128.168,105.996 128,125.5C 119.964,117.632 112.131,109.632 104.5,101.5C 108.099,90.3705 112.099,79.3705 116.5,68.5C 112.62,67.2052 108.786,67.2052 105,68.5C 102.061,76.4857 99.2274,84.4857 96.5,92.5C 75.7514,73.2534 55.418,53.42 35.5,33C 34.9056,32.5357 34.2389,32.369 33.5,32.5C 52.5118,13.2682 75.5118,2.26817 102.5,-0.5 Z"/></g>
<g><path style="opacity:1" fill="#fdfdfd" d="M 118.5,-0.5 C 153.833,-0.5 189.167,-0.5 224.5,-0.5C 224.5,32.8333 224.5,66.1667 224.5,99.5C 222.754,90.0954 220.254,80.7621 217,71.5C 197.927,28.5579 165.094,4.5579 118.5,-0.5 Z"/></g>
<g><path style="opacity:1" fill="#1a6098" d="M 33.5,32.5 C 34.2389,32.369 34.9056,32.5357 35.5,33C 55.418,53.42 75.7514,73.2534 96.5,92.5C 89.8407,109.977 83.674,127.644 78,145.5C 70.161,119.323 61.3277,93.4897 51.5,68C 47.8484,67.5014 44.1817,67.3347 40.5,67.5C 50.6936,96.9121 61.1936,126.245 72,155.5C 76.0659,156.464 80.2325,156.797 84.5,156.5C 90.7921,137.951 97.4588,119.617 104.5,101.5C 112.131,109.632 119.964,117.632 128,125.5C 128.168,105.996 128.668,86.6623 129.5,67.5C 129.5,97.1667 129.5,126.833 129.5,156.5C 139.659,157.33 149.992,157.83 160.5,158C 171.424,168.42 181.757,179.253 191.5,190.5C 179.171,204.01 164.171,213.51 146.5,219C 137.171,221.606 127.838,223.44 118.5,224.5C 114.167,224.5 109.833,224.5 105.5,224.5C 56.1875,219.036 22.6875,193.036 5,146.5C 2.3938,137.171 0.560471,127.838 -0.5,118.5C -0.5,113.167 -0.5,107.833 -0.5,102.5C 2.26878,74.9634 13.6021,51.63 33.5,32.5 Z"/></g>
<g><path style="opacity:1" fill="#f9fafb" d="M 96.5,92.5 C 99.2274,84.4857 102.061,76.4857 105,68.5C 108.786,67.2052 112.62,67.2052 116.5,68.5C 112.099,79.3705 108.099,90.3705 104.5,101.5C 97.4588,119.617 90.7921,137.951 84.5,156.5C 80.2325,156.797 76.0659,156.464 72,155.5C 61.1936,126.245 50.6936,96.9121 40.5,67.5C 44.1817,67.3347 47.8484,67.5014 51.5,68C 61.3277,93.4897 70.161,119.323 78,145.5C 83.674,127.644 89.8407,109.977 96.5,92.5 Z"/></g>
<g><path style="opacity:1" fill="#fafbfc" d="M 129.5,67.5 C 140.172,67.3335 150.839,67.5002 161.5,68C 167.326,69.1633 172.159,71.9966 176,76.5C 182.895,91.1495 179.062,101.983 164.5,109C 170.764,109.881 175.931,112.715 180,117.5C 187.911,137.177 181.744,150.01 161.5,156C 150.839,156.5 140.172,156.667 129.5,156.5C 129.5,126.833 129.5,97.1667 129.5,67.5 Z"/></g>
<g><path style="opacity:1" fill="#879ebc" d="M 156.5,77.5 C 151.167,77.5 145.833,77.5 140.5,77.5C 140.5,86.8333 140.5,96.1667 140.5,105.5C 139.506,96.0144 139.173,86.3478 139.5,76.5C 145.358,76.1778 151.025,76.5111 156.5,77.5 Z"/></g>
<g><path style="opacity:1" fill="#034d8b" d="M 156.5,77.5 C 165.942,78.6972 169.775,84.0306 168,93.5C 166.489,100.179 162.322,104.012 155.5,105C 150.511,105.499 145.511,105.666 140.5,105.5C 140.5,96.1667 140.5,86.8333 140.5,77.5C 145.833,77.5 151.167,77.5 156.5,77.5 Z"/></g>
<g><path style="opacity:1" fill="#889fbd" d="M 156.5,115.5 C 151.167,115.5 145.833,115.5 140.5,115.5C 140.5,125.833 140.5,136.167 140.5,146.5C 139.506,136.013 139.172,125.346 139.5,114.5C 145.358,114.178 151.025,114.511 156.5,115.5 Z"/></g>
<g><path style="opacity:1" fill="#024d8c" d="M 156.5,115.5 C 171.988,117.805 176.488,126.139 170,140.5C 167.374,143.231 164.207,145.064 160.5,146C 153.842,146.5 147.175,146.666 140.5,146.5C 140.5,136.167 140.5,125.833 140.5,115.5C 145.833,115.5 151.167,115.5 156.5,115.5 Z"/></g>
<g><path style="opacity:1" fill="#fdfdfd" d="M -0.5,118.5 C 0.560471,127.838 2.3938,137.171 5,146.5C 22.6875,193.036 56.1875,219.036 105.5,224.5C 70.1667,224.5 34.8333,224.5 -0.5,224.5C -0.5,189.167 -0.5,153.833 -0.5,118.5 Z"/></g>
<g><path style="opacity:1" fill="#fcfdfd" d="M 224.5,118.5 C 224.5,153.833 224.5,189.167 224.5,224.5C 189.167,224.5 153.833,224.5 118.5,224.5C 127.838,223.44 137.171,221.606 146.5,219C 164.171,213.51 179.171,204.01 191.5,190.5C 196.875,186.292 201.375,181.292 205,175.5C 216.274,158.044 222.774,139.044 224.5,118.5 Z"/></g>
</svg>
