<?xml version="1.0" encoding="UTF-8"?>
<!DOCTYPE svg PUBLIC "-//W3C//DTD SVG 1.1//EN" "http://www.w3.org/Graphics/SVG/1.1/DTD/svg11.dtd">
<svg xmlns="http://www.w3.org/2000/svg" version="1.1" width="268px" height="188px" style="shape-rendering:geometricPrecision; text-rendering:geometricPrecision; image-rendering:optimizeQuality; fill-rule:evenodd; clip-rule:evenodd" xmlns:xlink="http://www.w3.org/1999/xlink">
<g><path style="opacity:1" fill="#fdfefe" d="M -0.5,-0.5 C 88.8333,-0.5 178.167,-0.5 267.5,-0.5C 267.5,62.1667 267.5,124.833 267.5,187.5C 178.167,187.5 88.8333,187.5 -0.5,187.5C -0.5,124.833 -0.5,62.1667 -0.5,-0.5 Z"/></g>
<g><path style="opacity:1" fill="#88bee5" d="M 103.5,48.5 C 109.645,47.5098 115.978,47.1765 122.5,47.5C 122.5,47.8333 122.5,48.1667 122.5,48.5C 120.833,49.1667 119.167,49.8333 117.5,50.5C 115.442,51.824 113.775,51.324 112.5,49C 109.518,48.502 106.518,48.3354 103.5,48.5 Z"/></g>
<g><path style="opacity:1" fill="#12467a" d="M 122.5,48.5 C 126.715,48.0607 129.715,49.7274 131.5,53.5C 130.677,58.8142 127.677,60.6475 122.5,59C 121.951,55.619 119.951,53.7857 116.5,53.5C 117.127,52.5832 117.461,51.5832 117.5,50.5C 119.167,49.8333 120.833,49.1667 122.5,48.5 Z"/></g>
<g><path style="opacity:1" fill="#d0e4ee" d="M 184.5,47.5 C 186.5,47.5 188.5,47.5 190.5,47.5C 189.936,53.203 187.603,57.8696 183.5,61.5C 184.728,57.8162 184.728,54.1495 183.5,50.5C 184.11,49.609 184.443,48.609 184.5,47.5 Z"/></g>
<g><path style="opacity:1" fill="#12629b" d="M 103.5,48.5 C 106.518,48.3354 109.518,48.502 112.5,49C 113.775,51.324 115.442,51.824 117.5,50.5C 117.461,51.5832 117.127,52.5832 116.5,53.5C 119.951,53.7857 121.951,55.619 122.5,59C 127.677,60.6475 130.677,58.8142 131.5,53.5C 134.206,56.026 134.872,59.026 133.5,62.5C 130.566,63.7986 128.066,63.1319 126,60.5C 125.329,61.2524 124.496,61.5858 123.5,61.5C 121.244,60.5169 119.577,58.8502 118.5,56.5C 117.675,55.6143 116.675,55.281 115.5,55.5C 115.189,54.5222 114.522,53.8555 113.5,53.5C 111.812,54.5213 110.479,55.8546 109.5,57.5C 105.785,60.6067 102.785,64.2733 100.5,68.5C 99.2719,69.3065 98.2719,70.3065 97.5,71.5C 97.9125,67.8166 97.0792,64.4832 95,61.5C 93.8455,62.7433 92.5122,63.7433 91,64.5C 88.7111,69.419 86.2111,74.0857 83.5,78.5C 86.6321,67.5585 92.2988,58.2252 100.5,50.5C 100.973,49.0937 101.973,48.427 103.5,48.5 Z"/></g>
<g><path style="opacity:1" fill="#a3d5eb" d="M 115.5,55.5 C 115.833,56.1667 116.167,56.8333 116.5,57.5C 113.55,59.1153 110.884,61.1153 108.5,63.5C 108.751,61.8297 109.418,60.3297 110.5,59C 109.944,58.6174 109.611,58.1174 109.5,57.5C 110.479,55.8546 111.812,54.5213 113.5,53.5C 114.522,53.8555 115.189,54.5222 115.5,55.5 Z"/></g>
<g><path style="opacity:1" fill="#76bed6" d="M 183.5,50.5 C 184.728,54.1495 184.728,57.8162 183.5,61.5C 181.841,66.8266 179.174,71.4933 175.5,75.5C 175.343,74.1266 175.51,72.7932 176,71.5C 179.513,68.4464 180.347,64.7798 178.5,60.5C 179.659,56.8487 181.326,53.5154 183.5,50.5 Z"/></g>
<g><path style="opacity:1" fill="#1b72a9" d="M 122.5,48.5 C 122.5,48.1667 122.5,47.8333 122.5,47.5C 128.653,46.2475 133.32,48.2475 136.5,53.5C 136.833,54.1667 137.167,54.8333 137.5,55.5C 135.788,57.8957 135.288,60.5624 136,63.5C 137.575,68.91 139.908,73.91 143,78.5C 144.423,72.0974 145.257,72.4308 145.5,79.5C 146.5,79.5 147.5,79.5 148.5,79.5C 148.833,79.5 149.167,79.5 149.5,79.5C 149.709,80.9217 150.209,82.255 151,83.5C 154.419,80.5876 157.252,77.2543 159.5,73.5C 163.091,71.2176 164.424,67.8843 163.5,63.5C 164.5,63.5 165.5,63.5 166.5,63.5C 169.933,57.9027 172.933,52.5694 175.5,47.5C 178.5,47.5 181.5,47.5 184.5,47.5C 184.443,48.609 184.11,49.609 183.5,50.5C 181.326,53.5154 179.659,56.8487 178.5,60.5C 173.714,66.9903 170.547,74.3236 169,82.5C 168.329,83.2524 167.496,83.5858 166.5,83.5C 167.234,82.2921 167.567,80.9587 167.5,79.5C 164.579,79.1459 162.246,80.1459 160.5,82.5C 159.749,81.624 159.249,80.624 159,79.5C 157,82.1667 155,84.8333 153,87.5C 150.934,83.6934 148.767,83.6934 146.5,87.5C 145.817,87.1373 145.15,86.8039 144.5,86.5C 143.838,84.5295 143.172,82.5295 142.5,80.5C 139.874,79.7071 138.04,78.0405 137,75.5C 136.667,75.8333 136.333,76.1667 136,76.5C 135.667,75.5 135.333,74.5 135,73.5C 134.457,75.6314 133.624,77.6314 132.5,79.5C 132.251,78.4179 132.085,77.0846 132,75.5C 131.722,76.4158 131.222,77.0825 130.5,77.5C 127.1,72.6937 124.767,67.3604 123.5,61.5C 124.496,61.5858 125.329,61.2524 126,60.5C 128.066,63.1319 130.566,63.7986 133.5,62.5C 134.872,59.026 134.206,56.026 131.5,53.5C 129.715,49.7274 126.715,48.0607 122.5,48.5 Z"/></g>
<g><path style="opacity:1" fill="#138db9" d="M 175.5,47.5 C 172.933,52.5694 169.933,57.9027 166.5,63.5C 165.5,63.5 164.5,63.5 163.5,63.5C 164.424,67.8843 163.091,71.2176 159.5,73.5C 160.038,71.8828 160.371,70.2161 160.5,68.5C 162.371,62.9111 164.704,57.4111 167.5,52C 166.833,51.6667 166.167,51.3333 165.5,51C 166.381,50.2917 167.047,49.4584 167.5,48.5C 169.948,47.5269 172.615,47.1936 175.5,47.5 Z"/></g>
<g><path style="opacity:1" fill="#67b7d1" d="M 167.5,48.5 C 167.047,49.4584 166.381,50.2917 165.5,51C 166.167,51.3333 166.833,51.6667 167.5,52C 164.704,57.4111 162.371,62.9111 160.5,68.5C 160.657,67.1266 160.49,65.7932 160,64.5C 158.893,65.7119 158.393,65.3786 158.5,63.5C 158.206,56.408 161.206,51.408 167.5,48.5 Z"/></g>
<g><path style="opacity:1" fill="#389bc3" d="M 137.5,55.5 C 139.793,60.1433 142.126,64.81 144.5,69.5C 145.086,69.2907 145.586,68.9574 146,68.5C 146.232,69.7375 146.732,70.7375 147.5,71.5C 148.388,74.0545 148.721,76.7212 148.5,79.5C 147.5,79.5 146.5,79.5 145.5,79.5C 145.257,72.4308 144.423,72.0974 143,78.5C 139.908,73.91 137.575,68.91 136,63.5C 135.288,60.5624 135.788,57.8957 137.5,55.5 Z"/></g>
<g><path style="opacity:1" fill="#75c5d9" d="M 136.5,53.5 C 139.79,54.5252 142.123,56.6918 143.5,60C 145.157,63.8063 146.49,67.6396 147.5,71.5C 146.732,70.7375 146.232,69.7375 146,68.5C 145.586,68.9574 145.086,69.2907 144.5,69.5C 142.126,64.81 139.793,60.1433 137.5,55.5C 137.167,54.8333 136.833,54.1667 136.5,53.5 Z"/></g>
<g><path style="opacity:1" fill="#184b8a" d="M 97.5,71.5 C 96.8443,73.484 96.1776,75.484 95.5,77.5C 96.7323,79.0499 97.2323,80.7166 97,82.5C 95.2177,86.1226 93.051,89.4559 90.5,92.5C 86.9009,93.3439 83.2343,93.6773 79.5,93.5C 80.0916,90.8728 80.4249,88.2062 80.5,85.5C 80.5,85.1667 80.5,84.8333 80.5,84.5C 81.8698,82.7496 82.8698,80.7496 83.5,78.5C 86.2111,74.0857 88.7111,69.419 91,64.5C 92.5122,63.7433 93.8455,62.7433 95,61.5C 97.0792,64.4832 97.9125,67.8166 97.5,71.5 Z"/></g>
<g><path style="opacity:1" fill="#53a6c7" d="M 109.5,57.5 C 109.611,58.1174 109.944,58.6174 110.5,59C 109.418,60.3297 108.751,61.8297 108.5,63.5C 105.903,68.6278 103.903,73.9612 102.5,79.5C 100.913,76.0813 100.247,72.4146 100.5,68.5C 102.785,64.2733 105.785,60.6067 109.5,57.5 Z"/></g>
<g><path style="opacity:1" fill="#3797c1" d="M 115.5,55.5 C 116.675,55.281 117.675,55.6143 118.5,56.5C 119.577,58.8502 121.244,60.5169 123.5,61.5C 124.767,67.3604 127.1,72.6937 130.5,77.5C 131.305,82.4501 133.638,86.4501 137.5,89.5C 137.918,90.2216 138.584,90.7216 139.5,91C 146.158,91.4996 152.825,91.6663 159.5,91.5C 150.343,92.6576 141.009,92.8243 131.5,92C 127.56,89.8947 124.894,86.728 123.5,82.5C 125.109,80.3985 125.609,78.0652 125,75.5C 123.731,71.8586 122.564,68.1919 121.5,64.5C 120.675,63.6143 119.675,63.281 118.5,63.5C 116.926,61.8984 116.259,59.8984 116.5,57.5C 116.167,56.8333 115.833,56.1667 115.5,55.5 Z"/></g>
<g><path style="opacity:1" fill="#8ac3dd" d="M 100.5,50.5 C 92.2988,58.2252 86.6321,67.5585 83.5,78.5C 82.8698,80.7496 81.8698,82.7496 80.5,84.5C 79.4634,82.2625 79.2967,79.9291 80,77.5C 84.0095,68.1379 89.5095,59.8045 96.5,52.5C 97.6223,51.3698 98.9557,50.7031 100.5,50.5 Z"/></g>
<g><path style="opacity:1" fill="#66b7d3" d="M 118.5,63.5 C 119.675,63.281 120.675,63.6143 121.5,64.5C 122.564,68.1919 123.731,71.8586 125,75.5C 125.609,78.0652 125.109,80.3985 123.5,82.5C 121.076,76.4745 119.409,70.1412 118.5,63.5 Z"/></g>
<g><path style="opacity:1" fill="#1f8cbc" d="M 100.5,68.5 C 100.247,72.4146 100.913,76.0813 102.5,79.5C 101.244,86.4212 97.2436,90.7545 90.5,92.5C 93.051,89.4559 95.2177,86.1226 97,82.5C 97.2323,80.7166 96.7323,79.0499 95.5,77.5C 96.1776,75.484 96.8443,73.484 97.5,71.5C 98.2719,70.3065 99.2719,69.3065 100.5,68.5 Z"/></g>
<g><path style="opacity:1" fill="#0e5895" d="M 144.5,86.5 C 141.626,85.9366 138.96,84.9366 136.5,83.5C 136.517,85.5648 136.85,87.5648 137.5,89.5C 133.638,86.4501 131.305,82.4501 130.5,77.5C 131.222,77.0825 131.722,76.4158 132,75.5C 132.085,77.0846 132.251,78.4179 132.5,79.5C 133.624,77.6314 134.457,75.6314 135,73.5C 135.333,74.5 135.667,75.5 136,76.5C 136.333,76.1667 136.667,75.8333 137,75.5C 138.04,78.0405 139.874,79.7071 142.5,80.5C 143.172,82.5295 143.838,84.5295 144.5,86.5 Z"/></g>
<g><path style="opacity:1" fill="#3282ad" d="M 178.5,60.5 C 180.347,64.7798 179.513,68.4464 176,71.5C 175.51,72.7932 175.343,74.1266 175.5,75.5C 172.77,80.4041 169.436,84.9041 165.5,89C 163.593,90.122 161.593,90.9553 159.5,91.5C 161.372,88.4181 163.705,85.7514 166.5,83.5C 167.496,83.5858 168.329,83.2524 169,82.5C 170.547,74.3236 173.714,66.9903 178.5,60.5 Z"/></g>
<g><path style="opacity:1" fill="#b2e5f0" d="M 158.5,63.5 C 158.393,65.3786 158.893,65.7119 160,64.5C 160.49,65.7932 160.657,67.1266 160.5,68.5C 160.371,70.2161 160.038,71.8828 159.5,73.5C 157.252,77.2543 154.419,80.5876 151,83.5C 150.209,82.255 149.709,80.9217 149.5,79.5C 150.822,79.67 151.989,79.3366 153,78.5C 154.184,73.0986 156.018,68.0986 158.5,63.5 Z"/></g>
<g><path style="opacity:1" fill="#194387" d="M 166.5,83.5 C 163.705,85.7514 161.372,88.4181 159.5,91.5C 152.825,91.6663 146.158,91.4996 139.5,91C 138.584,90.7216 137.918,90.2216 137.5,89.5C 136.85,87.5648 136.517,85.5648 136.5,83.5C 138.96,84.9366 141.626,85.9366 144.5,86.5C 145.15,86.8039 145.817,87.1373 146.5,87.5C 148.767,83.6934 150.934,83.6934 153,87.5C 155,84.8333 157,82.1667 159,79.5C 159.249,80.624 159.749,81.624 160.5,82.5C 162.246,80.1459 164.579,79.1459 167.5,79.5C 167.567,80.9587 167.234,82.2921 166.5,83.5 Z"/></g>
<g><path style="opacity:1" fill="#397a96" d="M 80.5,85.5 C 80.4249,88.2062 80.0916,90.8728 79.5,93.5C 78.325,93.719 77.325,93.3857 76.5,92.5C 78.1274,90.2346 79.4608,87.9013 80.5,85.5 Z"/></g>
<g><path style="opacity:1" fill="#272727" d="M 103.5,103.5 C 103.216,106.852 102.05,109.852 100,112.5C 97.9535,109.036 96.2868,105.37 95,101.5C 94.8253,105.211 94.3253,108.878 93.5,112.5C 92.5067,107.88 92.1734,103.214 92.5,98.5C 93.8221,98.33 94.9887,98.6634 96,99.5C 97.3333,102.833 98.6667,106.167 100,109.5C 101.082,107.382 102.249,105.382 103.5,103.5 Z"/></g>
<g><path style="opacity:1" fill="#515151" d="M 110.5,98.5 C 112.337,98.6395 112.67,99.3061 111.5,100.5C 110.702,100.043 110.369,99.3764 110.5,98.5 Z"/></g>
<g><path style="opacity:1" fill="#141414" d="M 168.5,97.5 C 172.5,98.1667 172.5,98.8333 168.5,99.5C 168.36,101.124 169.027,102.29 170.5,103C 168.812,105.825 167.979,108.991 168,112.5C 168.021,108.991 167.188,105.825 165.5,103C 167.148,101.538 168.148,99.7047 168.5,97.5 Z"/></g>
<g><path style="opacity:1" fill="#262626" d="M 173.5,98.5 C 174.926,99.8015 176.259,101.302 177.5,103C 176.316,104.18 175.649,105.68 175.5,107.5C 175.649,109.32 176.316,110.82 177.5,112C 176.216,112.684 175.049,112.517 174,111.5C 173.999,108.313 173.166,105.48 171.5,103C 173.107,101.951 173.773,100.451 173.5,98.5 Z"/></g>
<g><path style="opacity:1" fill="#2b2b2b" d="M 156.5,101.5 C 164.241,101.738 166.241,105.238 162.5,112C 155.495,113.324 152.995,110.49 155,103.5C 155.717,102.956 156.217,102.289 156.5,101.5 Z"/></g>
<g><path style="opacity:1" fill="#e4e4e4" d="M 157.5,103.5 C 159.144,103.286 160.644,103.62 162,104.5C 163.67,111.18 161.67,112.846 156,109.5C 155.252,107.16 155.752,105.16 157.5,103.5 Z"/></g>
<g><path style="opacity:1" fill="#232323" d="M 149.5,107.5 C 145.091,108.101 143.758,106.434 145.5,102.5C 147.861,101.224 150.028,101.558 152,103.5C 152.688,104.332 152.521,104.998 151.5,105.5C 149.736,103.521 147.736,103.188 145.5,104.5C 146.901,105.521 148.235,106.521 149.5,107.5 Z"/></g>
<g><path style="opacity:1" fill="#151515" d="M 127.5,102.5 C 128.552,102.771 129.885,102.938 131.5,103C 130.069,103.465 128.903,104.299 128,105.5C 127.814,108.036 127.314,110.369 126.5,112.5C 126.187,108.958 126.521,105.625 127.5,102.5 Z"/></g>
<g><path style="opacity:1" fill="#383838" d="M 103.5,103.5 C 102.756,100.05 104.09,98.3838 107.5,98.5C 107.827,103.214 107.493,107.88 106.5,112.5C 105.676,109.215 105.176,105.882 105,102.5C 104.617,103.056 104.117,103.389 103.5,103.5 Z"/></g>
<g><path style="opacity:1" fill="#161616" d="M 110.5,102.5 C 111.777,103.694 112.444,105.36 112.5,107.5C 112.167,109.167 111.833,110.833 111.5,112.5C 110.513,109.232 110.18,105.898 110.5,102.5 Z"/></g>
<g><path style="opacity:1" fill="#202020" d="M 116.5,102.5 C 118.792,102.244 120.959,102.577 123,103.5C 123.515,105.939 123.015,106.105 121.5,104C 118.094,102.76 116.427,103.927 116.5,107.5C 117.342,111.923 119.508,112.59 123,109.5C 123.617,110.449 123.451,111.282 122.5,112C 114.424,112.805 112.424,109.638 116.5,102.5 Z"/></g>
<g><path style="opacity:1" fill="#787878" d="M 127.5,102.5 C 126.521,105.625 126.187,108.958 126.5,112.5C 125.192,108.981 125.192,105.315 126.5,101.5C 127.107,101.624 127.44,101.957 127.5,102.5 Z"/></g>
<g><path style="opacity:1" fill="#282828" d="M 134.5,103.5 C 136.971,101.041 139.471,101.374 142,104.5C 142.914,112.504 139.914,114.504 133,110.5C 132.333,108.5 132.333,106.5 133,104.5C 133.383,103.944 133.883,103.611 134.5,103.5 Z"/></g>
<g><path style="opacity:1" fill="#e4e4e4" d="M 134.5,103.5 C 140.313,103.062 141.98,105.562 139.5,111C 133.788,111.433 132.122,108.933 134.5,103.5 Z"/></g>
<g><path style="opacity:1" fill="#292929" d="M 149.5,107.5 C 150.5,107.5 151.5,107.5 152.5,107.5C 152.532,112.213 150.199,113.713 145.5,112C 144.549,111.282 144.383,110.449 145,109.5C 146.444,111.155 148.278,111.822 150.5,111.5C 150.567,110.041 150.234,108.708 149.5,107.5 Z"/></g>
<g><path style="opacity:1" fill="#818181" d="M 169.5,127.5 C 164.962,128.423 160.296,128.423 155.5,127.5C 154.511,131.107 154.177,134.774 154.5,138.5C 156.565,138.517 158.565,138.85 160.5,139.5C 158.393,140.468 156.059,140.802 153.5,140.5C 153.5,132.833 153.5,125.167 153.5,117.5C 159.167,117.5 164.833,117.5 170.5,117.5C 170.5,119.167 170.5,120.833 170.5,122.5C 167.167,122.5 163.833,122.5 160.5,122.5C 160.5,123.5 160.5,124.5 160.5,125.5C 164.012,124.945 167.012,125.612 169.5,127.5 Z"/></g>
<g><path style="opacity:1" fill="#858585" d="M 124.5,129.5 C 123.448,127.744 121.781,127.077 119.5,127.5C 119.911,124.447 120.577,121.447 121.5,118.5C 123.396,117.534 125.396,117.201 127.5,117.5C 126.49,121.614 125.49,125.614 124.5,129.5 Z"/></g>
<g><path style="opacity:1" fill="#808080" d="M 119.5,129.5 C 119.631,130.376 119.298,131.043 118.5,131.5C 117.005,130.295 115.672,130.295 114.5,131.5C 113.71,130.391 113.21,129.058 113,127.5C 112.722,128.416 112.222,129.082 111.5,129.5C 110.778,129.918 110.278,130.584 110,131.5C 109,130.167 108,130.167 107,131.5C 106.536,130.906 106.369,130.239 106.5,129.5C 108.102,125.761 109.102,121.761 109.5,117.5C 111.833,117.5 114.167,117.5 116.5,117.5C 116.505,120.532 116.838,123.532 117.5,126.5C 117.64,128.03 118.307,129.03 119.5,129.5 Z"/></g>
<g><path style="opacity:1" fill="#878787" d="M 149.5,128.5 C 149.662,126.473 149.495,124.473 149,122.5C 147.684,125.028 146.517,125.028 145.5,122.5C 144.824,123.602 144.158,124.602 143.5,125.5C 143.586,124.504 143.252,123.671 142.5,123C 140.866,122.506 139.199,122.34 137.5,122.5C 137.5,123.833 137.5,125.167 137.5,126.5C 136.504,126.414 135.671,126.748 135,127.5C 134.683,125.699 134.016,125.366 133,126.5C 132.292,125.619 131.458,124.953 130.5,124.5C 130.5,122.167 130.5,119.833 130.5,117.5C 136.29,117.096 141.956,117.596 147.5,119C 150.533,121.761 151.2,124.927 149.5,128.5 Z"/></g>
<g><path style="opacity:1" fill="#f4f4f4" d="M 143.5,125.5 C 142.866,126.947 141.699,127.613 140,127.5C 138.93,127.472 138.097,127.139 137.5,126.5C 137.5,125.167 137.5,123.833 137.5,122.5C 139.199,122.34 140.866,122.506 142.5,123C 143.252,123.671 143.586,124.504 143.5,125.5 Z"/></g>
<g><path style="opacity:1" fill="#828282" d="M 106.5,128.5 C 104.856,128.714 103.356,128.38 102,127.5C 101.536,128.094 101.369,128.761 101.5,129.5C 99.7873,125.885 98.454,122.051 97.5,118C 99.9018,117.186 102.235,117.353 104.5,118.5C 105.382,121.791 106.048,125.124 106.5,128.5 Z"/></g>
<g><path style="opacity:1" fill="#606060" d="M 169.5,127.5 C 169.5,128.5 169.5,129.5 169.5,130.5C 166.5,130.5 163.5,130.5 160.5,130.5C 160.5,133.5 160.5,136.5 160.5,139.5C 158.565,138.85 156.565,138.517 154.5,138.5C 154.177,134.774 154.511,131.107 155.5,127.5C 160.296,128.423 164.962,128.423 169.5,127.5 Z"/></g>
<g><path style="opacity:1" fill="#676767" d="M 149.5,128.5 C 148.684,130.144 147.35,131.31 145.5,132C 142.854,132.497 140.187,132.664 137.5,132.5C 137.5,135.167 137.5,137.833 137.5,140.5C 135.167,140.5 132.833,140.5 130.5,140.5C 130.5,135.167 130.5,129.833 130.5,124.5C 131.458,124.953 132.292,125.619 133,126.5C 134.016,125.366 134.683,125.699 135,127.5C 135.671,126.748 136.504,126.414 137.5,126.5C 138.097,127.139 138.93,127.472 140,127.5C 141.699,127.613 142.866,126.947 143.5,125.5C 144.158,124.602 144.824,123.602 145.5,122.5C 146.517,125.028 147.684,125.028 149,122.5C 149.495,124.473 149.662,126.473 149.5,128.5 Z"/></g>
<g><path style="opacity:1" fill="#575757" d="M 106.5,128.5 C 106.5,128.833 106.5,129.167 106.5,129.5C 106.369,130.239 106.536,130.906 107,131.5C 108,130.167 109,130.167 110,131.5C 110.278,130.584 110.778,129.918 111.5,129.5C 111.276,133.179 110.942,136.846 110.5,140.5C 108.167,140.5 105.833,140.5 103.5,140.5C 103.249,136.751 102.583,133.085 101.5,129.5C 101.369,128.761 101.536,128.094 102,127.5C 103.356,128.38 104.856,128.714 106.5,128.5 Z"/></g>
<g><path style="opacity:1" fill="#575757" d="M 119.5,127.5 C 121.781,127.077 123.448,127.744 124.5,129.5C 123.358,133.071 122.691,136.738 122.5,140.5C 120.167,140.5 117.833,140.5 115.5,140.5C 114.841,137.545 114.508,134.545 114.5,131.5C 115.672,130.295 117.005,130.295 118.5,131.5C 119.298,131.043 119.631,130.376 119.5,129.5C 119.5,128.833 119.5,128.167 119.5,127.5 Z"/></g>
</svg>
